<?xml version="1.0" encoding="UTF-8"?>
<svg width="32px" height="32px" viewBox="0 0 32 32" version="1.1" xmlns="http://www.w3.org/2000/svg" xmlns:xlink="http://www.w3.org/1999/xlink">
    <!-- Generator: Sketch 54.1 (76490) - https://sketchapp.com -->
    <title>Icons / big / bookmarks_green</title>
    <desc>Created with Sketch.</desc>
    <g id="Icons-/-big-/-bookmarks_green" stroke="none" stroke-width="1" fill="none" fill-rule="evenodd">
        <g>
            <rect id="BG" x="0" y="0" width="32" height="32" rx="4"></rect>
            <path d="M22.1933333,20 L24.9466667,21.8333333 L24.9466667,8.08666667 C24.9466667,6.56604265 23.7139573,5.33333333 22.1933333,5.33333333 L15.3333333,5.33333333 C14.0712561,5.33550536 12.972253,6.19547535 12.6666667,7.42 M7.05333333,12.9 L7.05333333,26.6666667 L12.88,22.7866667 C13.1040246,22.6372003 13.3959755,22.6372003 13.62,22.7866667 L19.44,26.6666667 L19.44,12.9 C19.4400345,12.1668948 19.1469967,11.4641975 18.6261148,10.9483241 C18.1052331,10.4324508 17.3997373,10.1462158 16.6666667,10.1533333 L9.80666667,10.1533333 C9.07705097,10.1515624 8.37671167,10.4401606 7.86016896,10.9554525 C7.34362627,11.4707445 7.05333119,12.1703822 7.05333333,12.9 Z" id="54.-bookmarks" stroke="#556654" stroke-width="1.5" stroke-linecap="round" stroke-linejoin="round"></path>
        </g>
    </g>
</svg>