<?xml version="1.0" encoding="UTF-8"?>
<svg width="24px" height="24px" viewBox="0 0 24 24" version="1.1" xmlns="http://www.w3.org/2000/svg" xmlns:xlink="http://www.w3.org/1999/xlink">
    <!-- Generator: Sketch 54.1 (76490) - https://sketchapp.com -->
    <title>Icons / download_white</title>
    <desc>Created with Sketch.</desc>
    <g id="Icons-/-download_white" stroke="none" stroke-width="1" fill="none" fill-rule="evenodd">
        <g id="Icons-/-download" transform="translate(0.000000, 0.000000)">
            <rect id="Rectangle" x="0" y="0" width="24" height="24"></rect>
            <path d="M20.54,15.5 C20.800411,15.5208985 21.0008372,15.7387531 21,16 L21,16.5 L21,19 C20.9249592,20.1584547 19.9399777,21.0458254 18.78,21 L5.26,21 C4.08480517,21.0684034 3.07502297,20.1747908 3,19 L3,16 C2.99997313,15.8656408 3.05402204,15.7369246 3.14996428,15.6428636 C3.24590653,15.5488025 3.37566769,15.4973128 3.51,15.5 L3.64,15.5 C3.91614237,15.5 4.14,15.7238576 4.14,16 L4.14,19 C4.17751149,19.5873954 4.68240258,20.0342017 5.27,20 L18.78,20 C19.3675974,20.0342017 19.8724885,19.5873954 19.91,19 L19.91,16.5 L19.91,16 C19.91,15.7238576 20.1338576,15.5 20.41,15.5 L20.54,15.5 Z M16.07,12.49 C16.3555188,12.7910986 16.3510964,13.2642904 16.06,13.56 L13.06,16.56 C12.7800661,16.8433721 12.3983249,17.002861 12,17.002861 C11.6016751,17.002861 11.2199339,16.8433721 10.94,16.56 L7.94,13.56 C7.65170993,13.2615888 7.65170993,12.7884112 7.94,12.49 C8.23281755,12.1975466 8.70718245,12.1975466 9,12.49 L11.25,14.75 L11.25,3.75 C11.25,3.33578644 11.5857864,3 12,3 C12.4142136,3 12.75,3.33578644 12.75,3.75 L12.75,14.75 L15.01,12.49 C15.3028175,12.1975466 15.7771825,12.1975466 16.07,12.49 Z" id="Combined-Shape" fill="#FFFFFF" fill-rule="nonzero"></path>
        </g>
    </g>
</svg>