<?xml version="1.0" encoding="UTF-8"?>
<svg width="32px" height="32px" viewBox="0 0 32 32" version="1.1" xmlns="http://www.w3.org/2000/svg" xmlns:xlink="http://www.w3.org/1999/xlink">
    <!-- Generator: Sketch 54.1 (76490) - https://sketchapp.com -->
    <title>Icons / big / home_red</title>
    <desc>Created with Sketch.</desc>
    <g id="Icons-/-big-/-home_red" stroke="none" stroke-width="1" fill="none" fill-rule="evenodd">
        <g id="Icons-/-home-big_red">
            <rect id="BG" x="0" y="0" width="32" height="32"></rect>
            <path d="M15.8633561,6.1393208 C15.5716517,6.16493019 15.2918624,6.27209088 15.0573624,6.4492242 L8.10003063,11.7376079 C7.70167844,12.0385162 7.46666667,12.5119131 7.46666667,13.0152493 L7.46666667,24.2716812 C7.46666667,25.1538429 8.17441095,25.8666667 9.04458599,25.8666667 L13.030642,25.8666667 L13.030642,20.0981473 L18.9814129,20.0981473 L18.9814129,25.8666667 L22.955414,25.8666667 C23.8255891,25.8666667 24.5333333,25.1538429 24.5333333,24.2716812 L24.5333955,12.9952877 C24.5272067,12.4990127 24.2928585,12.0343286 23.8983993,11.7364188 L16.9445553,6.45666483 C16.6717193,6.25056923 16.3403523,6.1393208 16,6.1393208 L15.8633561,6.1393208 Z" id="01.-Home" fill="#BF2B2B"></path>
        </g>
    </g>
</svg>