<?xml version="1.0" encoding="UTF-8"?>
<svg width="24px" height="24px" viewBox="0 0 24 24" version="1.1" xmlns="http://www.w3.org/2000/svg" xmlns:xlink="http://www.w3.org/1999/xlink">
    <!-- Generator: Sketch 54.1 (76490) - https://sketchapp.com -->
    <title>Icons / search_grey</title>
    <desc>Created with Sketch.</desc>
    <g id="Icons-/-search_grey" stroke="none" stroke-width="1" fill="none" fill-rule="evenodd">
        <g>
            <rect id="Rectangle" x="0" y="0" width="24" height="24"></rect>
            <path d="M10.48,2.54 C7.20467588,2.52569689 4.29889201,4.63847804 3.3026202,7.75863751 C2.30634838,10.878797 3.45004492,14.2845836 6.1275875,16.1710401 C8.80513008,18.0574967 12.3971531,17.9882506 15,16 L19.76,20.75 C20.0528175,21.0424534 20.5271825,21.0424534 20.82,20.75 C21.1124534,20.4571825 21.1124534,19.9828175 20.82,19.69 L16.09,15 C18.0469517,12.7936085 18.5269691,9.64420148 17.3161802,6.95499833 C16.1053913,4.26579519 13.4292061,2.53743919 10.48,2.54 Z M10.48,16.04 C7.1662915,16.04 4.48,13.3537085 4.48,10.04 C4.48,6.7262915 7.1662915,4.04 10.48,4.04 C13.7937085,4.04 16.48,6.7262915 16.48,10.04 C16.48,13.3537085 13.7937085,16.04 10.48,16.04 L10.48,16.04 Z" id="Shape" fill-opacity="0.7" fill="#000000"></path>
        </g>
    </g>
</svg>